<?xml version="1.0" encoding="UTF-8"?>
<svg version="1.1" xmlns="http://www.w3.org/2000/svg" width="150" height="150">
<path d="M0 0 C4.57035944 3.76631473 7.26588921 8.11088523 8.0234375 14.00390625 C8.11995782 20.67346065 7.03673135 24.63413362 3.6875 30.390625 C3.6875 31.050625 3.6875 31.710625 3.6875 32.390625 C5.47715547 33.75339586 5.47715547 33.75339586 7.6875 35.015625 C8.80125 35.68464844 8.80125 35.68464844 9.9375 36.3671875 C10.515 36.70492187 11.0925 37.04265625 11.6875 37.390625 C11.20605059 42.20511908 10.8866413 44.99234241 8.6875 49.390625 C5.7175 49.390625 2.7475 49.390625 -0.3125 49.390625 C3.05856323 60.01390979 8.98643721 66.64837442 17.93359375 73.07421875 C23.37096202 77.15527244 25.03279358 82.02000529 26.6875 88.390625 C26.6875 91.690625 26.6875 94.990625 26.6875 98.390625 C0.2875 98.390625 -26.1125 98.390625 -53.3125 98.390625 C-53.3125 87.3154235 -52.66126244 81.12482344 -45.2734375 73.22265625 C-43.353884 71.42928854 -41.38953286 69.91125084 -39.25 68.390625 C-32.38178886 63.46574492 -28.86258214 57.32421388 -26.3125 49.390625 C-29.2825 49.390625 -32.2525 49.390625 -35.3125 49.390625 C-39.32064664 40.87331339 -39.32064664 40.87331339 -38.3125 37.390625 C-35.80764124 35.40965827 -33.13622262 33.87181879 -30.3125 32.390625 C-30.60125 31.66875 -30.89 30.946875 -31.1875 30.203125 C-31.744375 28.8109375 -31.744375 28.8109375 -32.3125 27.390625 C-32.65796875 26.6171875 -33.0034375 25.84375 -33.359375 25.046875 C-35.43239189 19.26961481 -35.26725165 12.69602568 -32.75 7.078125 C-29.66388409 1.7860882 -25.58653948 -1.62252768 -20 -4.046875 C-12.4311459 -5.20144597 -6.33891255 -4.44746284 0 0 Z " fill="#555251" transform="translate(88.3125,37.609375)"/>
<path d="M0 0 C4.36269249 3.65041616 8.47373808 7.38864418 12.421875 11.484375 C14.12998502 13.21396312 14.12998502 13.21396312 17 15 C17 15.66 17 16.32 17 17 C17.56203125 17.27972656 18.1240625 17.55945313 18.703125 17.84765625 C20.2385727 18.61799141 21.7698443 19.39670548 23.296875 20.18359375 C27.27180989 22.21536779 31.12823764 24.10827076 35.375 25.5 C40.1915125 27.49303965 41.88025541 29.87248527 44.25 34.375 C45 37 45 37 45 44 C21.24 44 -2.52 44 -27 44 C-27 36.58129422 -26.38318544 32.84716937 -22 27 C-19.33841552 24.78316215 -16.63336745 22.76116678 -13.81420898 20.75732422 C-8.55957031 16.92689609 -5.69097216 12.84018958 -3 7 C-2.49726562 5.91912109 -2.49726562 5.91912109 -1.984375 4.81640625 C-1.28153158 3.22861906 -0.6327401 1.61700247 0 0 Z " fill="#565352" transform="translate(66,88)"/>
<path d="M0 0 C4.57035944 3.76631473 7.26588921 8.11088523 8.0234375 14.00390625 C8.11995782 20.67346065 7.03673135 24.63413362 3.6875 30.390625 C3.6875 31.050625 3.6875 31.710625 3.6875 32.390625 C5.47715547 33.75339586 5.47715547 33.75339586 7.6875 35.015625 C8.80125 35.68464844 8.80125 35.68464844 9.9375 36.3671875 C10.515 36.70492187 11.0925 37.04265625 11.6875 37.390625 C11.20605059 42.20511908 10.8866413 44.99234241 8.6875 49.390625 C5.7175 49.390625 2.7475 49.390625 -0.3125 49.390625 C3.05856323 60.01390979 8.98643721 66.64837442 17.93359375 73.07421875 C23.37096202 77.15527244 25.03279358 82.02000529 26.6875 88.390625 C26.6875 91.690625 26.6875 94.990625 26.6875 98.390625 C0.2875 98.390625 -26.1125 98.390625 -53.3125 98.390625 C-53.3125 87.3154235 -52.66126244 81.12482344 -45.2734375 73.22265625 C-43.353884 71.42928854 -41.38953286 69.91125084 -39.25 68.390625 C-32.38178886 63.46574492 -28.86258214 57.32421388 -26.3125 49.390625 C-29.2825 49.390625 -32.2525 49.390625 -35.3125 49.390625 C-39.32064664 40.87331339 -39.32064664 40.87331339 -38.3125 37.390625 C-35.80764124 35.40965827 -33.13622262 33.87181879 -30.3125 32.390625 C-30.60125 31.66875 -30.89 30.946875 -31.1875 30.203125 C-31.744375 28.8109375 -31.744375 28.8109375 -32.3125 27.390625 C-32.65796875 26.6171875 -33.0034375 25.84375 -33.359375 25.046875 C-35.43239189 19.26961481 -35.26725165 12.69602568 -32.75 7.078125 C-29.66388409 1.7860882 -25.58653948 -1.62252768 -20 -4.046875 C-12.4311459 -5.20144597 -6.33891255 -4.44746284 0 0 Z M-29.375 8.078125 C-30.95717532 13.66847779 -31.63449408 19.35983116 -29.2578125 24.80859375 C-27.5033281 27.65833321 -25.67923704 30.02388796 -23.3125 32.390625 C-26.9425 34.700625 -30.5725 37.010625 -34.3125 39.390625 C-33.8672002 44.02082487 -33.8672002 44.02082487 -32.3125 45.390625 C-30.62641034 45.46268011 -28.93749341 45.47448568 -27.25 45.453125 C-26.33089844 45.44410156 -25.41179688 45.43507812 -24.46484375 45.42578125 C-23.75457031 45.41417969 -23.04429688 45.40257812 -22.3125 45.390625 C-24.85798029 58.38597173 -28.82972299 65.9188252 -39.61352539 73.63452148 C-44.6345898 77.34624959 -47.77318503 81.29947065 -49.3125 87.390625 C-49.3125 89.700625 -49.3125 92.010625 -49.3125 94.390625 C-25.5525 94.390625 -1.7925 94.390625 22.6875 94.390625 C22.6875 86.492703 21.52318447 82.7124268 16.5 76.828125 C14.12121856 74.76651442 11.70532211 72.89877222 9.1875 71.015625 C1.10736552 64.78774726 -2.08873185 57.73196903 -4 47.828125 C-4.1546875 46.6215625 -4.1546875 46.6215625 -4.3125 45.390625 C-3.61382812 45.42542969 -2.91515625 45.46023437 -2.1953125 45.49609375 C-1.28523438 45.52316406 -0.37515625 45.55023438 0.5625 45.578125 C1.46742187 45.61292969 2.37234375 45.64773437 3.3046875 45.68359375 C4.09101562 45.58691406 4.87734375 45.49023438 5.6875 45.390625 C7.9648501 42.57552507 7.9648501 42.57552507 7.6875 39.390625 C5.23269941 37.46241314 5.23269941 37.46241314 2.1875 35.703125 C1.1665625 35.08050781 0.145625 34.45789063 -0.90625 33.81640625 C-1.7003125 33.34589844 -2.494375 32.87539062 -3.3125 32.390625 C-2.89097656 31.83632812 -2.46945313 31.28203125 -2.03515625 30.7109375 C-1.48730469 29.98648438 -0.93945312 29.26203125 -0.375 28.515625 C0.17027344 27.79632813 0.71554688 27.07703125 1.27734375 26.3359375 C4.6269432 21.71516042 4.32977453 16.92464158 3.6875 11.390625 C1.99611817 6.60891468 -0.66887404 3.4125663 -5.0625 0.890625 C-14.80073806 -3.16545164 -23.01175238 -0.21337947 -29.375 8.078125 Z " fill="#272727" transform="translate(88.3125,37.609375)"/>
<path d="M0 0 C5.94 0 11.88 0 18 0 C18.4125 1.835625 18.825 3.67125 19.25 5.5625 C20.54610689 10.73475755 22.03052182 14.59077482 25 19 C25.556875 19.845625 26.11375 20.69125 26.6875 21.5625 C30.00611003 25.06049436 33.9215398 27.46403437 38 30 C32.99460429 31.66846524 28.66697974 29.07203442 24 27 C19.31631921 24.30993055 15.78470626 20.83457794 12 17 C11.03589638 16.03441669 10.07103737 15.06958708 9.10546875 14.10546875 C6.40364583 11.40364583 3.70182292 8.70182292 1 6 C0.01 6.495 0.01 6.495 -1 7 C-0.67 4.69 -0.34 2.38 0 0 Z " fill="#454242" transform="translate(66,83)"/>
<path d="M0 0 C0.8920552 2.4716179 1.06403306 3.76831676 0.35546875 6.33203125 C-2.57655745 12.55890963 -5.68830263 15.62914619 -11.48828125 19.26171875 C-14.82655775 21.57203453 -17.18830959 24.35350389 -19.72265625 27.49609375 C-20.14417969 27.99238281 -20.56570312 28.48867187 -21 29 C-21.33 29 -21.66 29 -22 29 C-21.64547607 23.20944246 -20.14778667 19.21118079 -16 15 C-13.2538314 12.91769498 -10.44063896 10.95898401 -7.60546875 9 C-4.17204469 6.3644481 -2.22472017 3.68229545 0 0 Z " fill="#747171" transform="translate(62,98)"/>
<path d="M0 0 C3.46825363 3.23703673 5.66708706 5.74320069 6.37109375 10.515625 C6.53506417 17.26734817 5.54322396 21.85101284 1 27 C-2.21451269 28.60725635 -5.43612536 28.05748185 -9 28 C-7.60878255 25.2175651 -5.69835788 24.44789935 -3 23 C-2.34 23 -1.68 23 -1 23 C2.41995892 16.38807943 3.0678931 10.13846108 1 2.9375 C0.67 1.968125 0.34 0.99875 0 0 Z " fill="#444141" transform="translate(86,41)"/>
<path d="M0 0 C3.3 1.98 6.6 3.96 10 6 C9 11 9 11 8 12 C6.48071962 12.07179964 4.95832518 12.08392007 3.4375 12.0625 C2.61121094 12.05347656 1.78492187 12.04445313 0.93359375 12.03515625 C0.29550781 12.02355469 -0.34257813 12.01195313 -1 12 C-0.649375 10.948125 -0.29875 9.89625 0.0625 8.8125 C1.33125865 4.81638658 1.33125865 4.81638658 0 0 Z " fill="#444141" transform="translate(86,71)"/>
<path d="M0 0 C-0.886875 0.45375 -1.77375 0.9075 -2.6875 1.375 C-8.50189394 5.21002579 -10.5525182 12.78117124 -13 19 C-13.33 19 -13.66 19 -14 19 C-14.64022002 12.8538878 -14.03167838 8.76570161 -10.4296875 3.66796875 C-7.33917912 0.06237563 -4.61923894 -1.88191216 0 0 Z " fill="#726F6E" transform="translate(72,39)"/>
<path d="M0 0 C-0.66 1.98 -1.32 3.96 -2 6 C-4.375 6.625 -4.375 6.625 -7 7 C-7.66 6.34 -8.32 5.68 -9 5 C-7.87926138 4.16094435 -6.75325453 3.32892169 -5.625 2.5 C-4.99851562 2.0359375 -4.37203125 1.571875 -3.7265625 1.09375 C-2 0 -2 0 0 0 Z " fill="#716E6D" transform="translate(65,71)"/>
</svg>
