<?xml version="1.0" encoding="UTF-8"?>
<svg version="1.1" xmlns="http://www.w3.org/2000/svg" width="150" height="150">
<path d="M0 0 C3.35415581 3.53153905 5.06421414 6.73904241 5.3828125 11.62109375 C5.1875 13.5859375 5.1875 13.5859375 3.625 17.0234375 C1.67313624 21.86066508 2.64837778 24.75213179 4.1875 29.5859375 C4.455625 30.43542969 4.72375 31.28492188 5 32.16015625 C5.70279643 34.31247031 6.43081197 36.45207724 7.1875 38.5859375 C9.16679118 35.61700074 10.21491785 33.06973131 11.375 29.7109375 C11.73980469 28.68226562 12.10460937 27.65359375 12.48046875 26.59375 C13.43399425 22.53731555 12.86073344 19.96980623 11.0625 16.2734375 C9.83337246 12.49826005 9.99454752 9.31303165 11.1875 5.5859375 C13.54203523 1.41458096 16.39550484 -1.52878809 21 -3.0390625 C25.79572004 -3.87670266 29.94153279 -2.67913556 34.1875 -0.4140625 C37.73457999 3.13301749 39.05859925 5.87800263 39.4375 10.8984375 C39.11376561 15.67351978 37.67566047 18.80014493 34.625 22.4609375 C33.1875 23.5859375 33.1875 23.5859375 31.1875 23.5859375 C31.35048584 24.14313477 31.51347168 24.70033203 31.68139648 25.27441406 C32.2302175 27.78104089 32.30079385 30.00574674 32.28515625 32.5703125 C32.28032227 33.97216797 32.28032227 33.97216797 32.27539062 35.40234375 C32.26282227 36.85447266 32.26282227 36.85447266 32.25 38.3359375 C32.24548828 39.31949219 32.24097656 40.30304687 32.23632812 41.31640625 C32.22456483 43.73964541 32.20812684 46.16276023 32.1875 48.5859375 C32.950625 47.8228125 33.71375 47.0596875 34.5 46.2734375 C37.1875 43.5859375 37.1875 43.5859375 39.00390625 42.07421875 C40.70819273 39.93120505 40.35159951 38.45555164 40.125 35.7734375 C39.97450334 30.85721326 40.86339659 28.37172194 44.1875 24.5859375 C47.27771256 21.59873203 49.91122123 20.83748331 54.1875 20.5859375 C58.58247047 21.27988021 61.20750566 22.22082889 64.0625 25.5859375 C67.1713098 29.97484545 67.90026232 33.2402201 67.1875 38.5859375 C65.63166158 42.55255525 63.7836062 45.18853337 60.1875 47.5859375 C59.1975 47.5859375 58.2075 47.5859375 57.1875 47.5859375 C56.66736328 49.28556641 56.66736328 49.28556641 56.13671875 51.01953125 C53.56208701 58.74342647 50.20660517 66.17168581 47 73.6484375 C46.33886903 75.19712749 45.67805898 76.74595452 45.01757812 78.29492188 C43.41125005 82.06018493 41.80058247 85.82356345 40.1875 89.5859375 C42.09470055 91.67771904 42.09470055 91.67771904 44.5625 92.8984375 C48.9949164 95.74784804 50.91392983 98.49165681 52.1875 103.5859375 C52.1875 108.2059375 52.1875 112.8259375 52.1875 117.5859375 C22.8175 117.5859375 -6.5525 117.5859375 -36.8125 117.5859375 C-36.8125 99.78265881 -36.8125 99.78265881 -32.3828125 95.0625 C-29.76519951 92.70534602 -28.40230877 91.5859375 -24.8125 91.5859375 C-28.86163467 80.27569634 -33.44257457 69.22654621 -38.2043457 58.19775391 C-38.6705835 57.11155762 -39.13682129 56.02536133 -39.6171875 54.90625 C-40.03983887 53.92930176 -40.46249023 52.95235352 -40.89794922 51.94580078 C-41.8125 49.5859375 -41.8125 49.5859375 -41.8125 47.5859375 C-42.6478125 47.493125 -42.6478125 47.493125 -43.5 47.3984375 C-47.29583226 46.06476671 -50.02420413 43.16252923 -51.8125 39.5859375 C-52.38675085 34.87896333 -52.26804552 31.46448958 -50.0625 27.2109375 C-47.14026089 23.80165853 -45.28944789 22.00333582 -40.9375 20.7734375 C-36.10143527 20.48327362 -33.03045221 21.75551554 -29.0625 24.4609375 C-26.84556903 26.55470564 -25.90116572 27.78867142 -24.8125 30.5859375 C-24.828125 32.91796875 -24.828125 32.91796875 -25.0625 35.3984375 C-25.18656057 39.58548172 -24.57275458 41.54438377 -21.8125 44.7109375 C-20.8353762 45.69258502 -19.84261965 46.66005615 -18.8125 47.5859375 C-17.20413783 45.97757533 -17.60942428 44.18886047 -17.53125 41.96484375 C-17.49386719 41.02962891 -17.45648438 40.09441406 -17.41796875 39.13085938 C-17.38316406 38.14666016 -17.34835938 37.16246094 -17.3125 36.1484375 C-17.24375383 34.21208702 -17.17103125 32.27587237 -17.09375 30.33984375 C-17.06345703 29.47689697 -17.03316406 28.6139502 -17.00195312 27.72485352 C-16.8125 25.5859375 -16.8125 25.5859375 -15.8125 23.5859375 C-16.67875 23.2765625 -16.67875 23.2765625 -17.5625 22.9609375 C-20.79712874 20.98421994 -22.07138793 18.94379649 -23.8125 15.5859375 C-24.62405954 9.19490614 -23.58359363 5.78393143 -19.8125 0.5859375 C-13.75842309 -4.07104474 -6.24671035 -4.87351109 0 0 Z " fill="#555251" transform="translate(67.8125,18.4140625)"/>
<path d="M0 0 C3.35415581 3.53153905 5.06421414 6.73904241 5.3828125 11.62109375 C5.1875 13.5859375 5.1875 13.5859375 3.625 17.0234375 C1.67313624 21.86066508 2.64837778 24.75213179 4.1875 29.5859375 C4.455625 30.43542969 4.72375 31.28492188 5 32.16015625 C5.70279643 34.31247031 6.43081197 36.45207724 7.1875 38.5859375 C9.16679118 35.61700074 10.21491785 33.06973131 11.375 29.7109375 C11.73980469 28.68226562 12.10460937 27.65359375 12.48046875 26.59375 C13.43399425 22.53731555 12.86073344 19.96980623 11.0625 16.2734375 C9.83337246 12.49826005 9.99454752 9.31303165 11.1875 5.5859375 C13.54203523 1.41458096 16.39550484 -1.52878809 21 -3.0390625 C25.79572004 -3.87670266 29.94153279 -2.67913556 34.1875 -0.4140625 C37.73457999 3.13301749 39.05859925 5.87800263 39.4375 10.8984375 C39.11376561 15.67351978 37.67566047 18.80014493 34.625 22.4609375 C33.1875 23.5859375 33.1875 23.5859375 31.1875 23.5859375 C31.35048584 24.14313477 31.51347168 24.70033203 31.68139648 25.27441406 C32.2302175 27.78104089 32.30079385 30.00574674 32.28515625 32.5703125 C32.28032227 33.97216797 32.28032227 33.97216797 32.27539062 35.40234375 C32.26282227 36.85447266 32.26282227 36.85447266 32.25 38.3359375 C32.24548828 39.31949219 32.24097656 40.30304687 32.23632812 41.31640625 C32.22456483 43.73964541 32.20812684 46.16276023 32.1875 48.5859375 C32.950625 47.8228125 33.71375 47.0596875 34.5 46.2734375 C37.1875 43.5859375 37.1875 43.5859375 39.00390625 42.07421875 C40.70819273 39.93120505 40.35159951 38.45555164 40.125 35.7734375 C39.97450334 30.85721326 40.86339659 28.37172194 44.1875 24.5859375 C47.27771256 21.59873203 49.91122123 20.83748331 54.1875 20.5859375 C58.58247047 21.27988021 61.20750566 22.22082889 64.0625 25.5859375 C67.1713098 29.97484545 67.90026232 33.2402201 67.1875 38.5859375 C65.63166158 42.55255525 63.7836062 45.18853337 60.1875 47.5859375 C59.1975 47.5859375 58.2075 47.5859375 57.1875 47.5859375 C56.66736328 49.28556641 56.66736328 49.28556641 56.13671875 51.01953125 C53.56208701 58.74342647 50.20660517 66.17168581 47 73.6484375 C46.33886903 75.19712749 45.67805898 76.74595452 45.01757812 78.29492188 C43.41125005 82.06018493 41.80058247 85.82356345 40.1875 89.5859375 C42.09470055 91.67771904 42.09470055 91.67771904 44.5625 92.8984375 C48.9949164 95.74784804 50.91392983 98.49165681 52.1875 103.5859375 C52.1875 108.2059375 52.1875 112.8259375 52.1875 117.5859375 C22.8175 117.5859375 -6.5525 117.5859375 -36.8125 117.5859375 C-36.8125 99.78265881 -36.8125 99.78265881 -32.3828125 95.0625 C-29.76519951 92.70534602 -28.40230877 91.5859375 -24.8125 91.5859375 C-28.86163467 80.27569634 -33.44257457 69.22654621 -38.2043457 58.19775391 C-38.6705835 57.11155762 -39.13682129 56.02536133 -39.6171875 54.90625 C-40.03983887 53.92930176 -40.46249023 52.95235352 -40.89794922 51.94580078 C-41.8125 49.5859375 -41.8125 49.5859375 -41.8125 47.5859375 C-42.6478125 47.493125 -42.6478125 47.493125 -43.5 47.3984375 C-47.29583226 46.06476671 -50.02420413 43.16252923 -51.8125 39.5859375 C-52.38675085 34.87896333 -52.26804552 31.46448958 -50.0625 27.2109375 C-47.14026089 23.80165853 -45.28944789 22.00333582 -40.9375 20.7734375 C-36.10143527 20.48327362 -33.03045221 21.75551554 -29.0625 24.4609375 C-26.84556903 26.55470564 -25.90116572 27.78867142 -24.8125 30.5859375 C-24.828125 32.91796875 -24.828125 32.91796875 -25.0625 35.3984375 C-25.18656057 39.58548172 -24.57275458 41.54438377 -21.8125 44.7109375 C-20.8353762 45.69258502 -19.84261965 46.66005615 -18.8125 47.5859375 C-17.20413783 45.97757533 -17.60942428 44.18886047 -17.53125 41.96484375 C-17.49386719 41.02962891 -17.45648438 40.09441406 -17.41796875 39.13085938 C-17.38316406 38.14666016 -17.34835938 37.16246094 -17.3125 36.1484375 C-17.24375383 34.21208702 -17.17103125 32.27587237 -17.09375 30.33984375 C-17.06345703 29.47689697 -17.03316406 28.6139502 -17.00195312 27.72485352 C-16.8125 25.5859375 -16.8125 25.5859375 -15.8125 23.5859375 C-16.67875 23.2765625 -16.67875 23.2765625 -17.5625 22.9609375 C-20.79712874 20.98421994 -22.07138793 18.94379649 -23.8125 15.5859375 C-24.62405954 9.19490614 -23.58359363 5.78393143 -19.8125 0.5859375 C-13.75842309 -4.07104474 -6.24671035 -4.87351109 0 0 Z M-18.8125 5.5859375 C-20.42129162 8.80352074 -20.42451039 12.10679145 -19.8125 15.5859375 C-17.60336457 18.63069052 -17.60336457 18.63069052 -14.8125 20.5859375 C-14.1525 20.5859375 -13.4925 20.5859375 -12.8125 20.5859375 C-13.4725 32.7959375 -14.1325 45.0059375 -14.8125 57.5859375 C-18.2775 53.9971875 -18.2775 53.9971875 -21.8125 50.3359375 C-22.54339844 49.58924805 -23.27429688 48.84255859 -24.02734375 48.07324219 C-24.59582031 47.47415039 -25.16429688 46.87505859 -25.75 46.2578125 C-26.33652344 45.6503418 -26.92304687 45.04287109 -27.52734375 44.41699219 C-29.66181465 41.37585774 -28.78386771 38.22517068 -28.5 34.6484375 C-28.51266453 31.25434457 -28.79558868 30.61002332 -30.875 27.6484375 C-34.42790225 25.15384656 -36.47154305 24.50978036 -40.8125 24.5859375 C-45.07048376 26.81573418 -45.07048376 26.81573418 -47.8125 30.5859375 C-48.30584947 36.34087513 -48.30584947 36.34087513 -46.125 41.5234375 C-43.60054723 43.77497646 -42.14207907 44.30847258 -38.8125 44.5859375 C-38.63699615 45.13447388 -38.46149231 45.68301025 -38.28067017 46.24816895 C-36.50237436 51.70663692 -34.49333604 57.01206683 -32.2734375 62.3046875 C-31.78395126 63.48061462 -31.78395126 63.48061462 -31.28457642 64.68029785 C-30.60207228 66.31778448 -29.91800571 67.95462071 -29.23242188 69.59082031 C-28.17925168 72.10563325 -27.13227655 74.62296326 -26.0859375 77.140625 C-25.41963373 78.73713067 -24.75297995 80.33349032 -24.0859375 81.9296875 C-23.61563614 83.06077942 -23.61563614 83.06077942 -23.13583374 84.21472168 C-21.87697447 87.64925377 -21.87697447 87.64925377 -19.8125 90.5859375 C-17.45021486 90.59053749 -15.12012609 90.53192547 -12.76171875 90.4296875 C-11.27125245 90.37523427 -9.78077336 90.32113017 -8.2902832 90.26733398 C-7.50690582 90.23743378 -6.72352844 90.20753357 -5.91641235 90.17672729 C7.84528725 89.65967072 21.44456656 89.47625964 35.1875 90.5859375 C38.52930367 83.6208359 41.62950232 76.62768316 44.40625 69.421875 C44.67542236 68.73007141 44.94459473 68.03826782 45.22192383 67.32550049 C46.32963745 64.47790572 47.43607274 61.63046518 48.51025391 58.77001953 C49.31082542 56.64610282 50.13725593 54.53384348 50.96875 52.421875 C51.20331909 51.77817963 51.43788818 51.13448425 51.67956543 50.47128296 C53.06559323 47.0214809 54.02592889 45.68117646 57.27148438 43.76806641 C58.23376953 43.37796387 59.19605469 42.98786133 60.1875 42.5859375 C62.8640121 40.08785954 63.16010178 38.83708782 63.5625 35.1484375 C63.16152403 31.33916575 62.61849248 29.51989394 60.1875 26.5859375 C57.30388977 24.87135845 55.54274462 24.57853657 52.1875 24.6484375 C48.08001436 25.93202676 46.59838967 26.96960299 44.1875 30.5859375 C44.2183007 32.48438056 44.33226531 34.38216814 44.5 36.2734375 C44.70782846 40.38945484 44.58483612 42.04213532 42.12109375 45.4140625 C40.38344207 47.10365686 38.59955029 48.74745545 36.765625 50.33203125 C34.21422461 52.56257371 32.22485319 54.88692054 30.1875 57.5859375 C29.24241444 49.55444965 28.88883043 41.54020364 28.625 33.4609375 C28.58181641 32.21828125 28.53863281 30.975625 28.49414062 29.6953125 C28.38903545 26.65894079 28.28688657 23.62250085 28.1875 20.5859375 C28.81140625 20.29074219 29.4353125 19.99554688 30.078125 19.69140625 C32.72913967 18.30207819 33.76042985 17.22601727 35.1875 14.5859375 C35.71070903 10.47500945 35.64675779 8.35136715 33.5 4.7734375 C30.12577042 1.58159871 27.84457876 0.55141503 23.1875 0.6484375 C19.43630814 1.82068496 17.74730567 3.6604453 15.1875 6.5859375 C14.8575 6.9159375 14.5275 7.2459375 14.1875 7.5859375 C13.7669107 11.87594839 13.6629849 13.89450116 16.31713867 17.39331055 C18.1875 20.5859375 18.1875 20.5859375 17.73950195 23.91333008 C17.30597412 25.09048584 16.87244629 26.2676416 16.42578125 27.48046875 C16.20053268 28.11329269 15.97528412 28.74611664 15.74320984 29.39811707 C15.02049616 31.40839214 14.26084741 33.40232629 13.5 35.3984375 C13.00604116 36.75888854 12.51447726 38.12021168 12.02539062 39.48242188 C8.4551013 49.3183362 8.4551013 49.3183362 7.1875 50.5859375 C5.65094781 46.47317593 4.15546983 42.34832235 2.6953125 38.20800781 C2.19381545 36.80368683 1.68157562 35.40315178 1.15820312 34.00683594 C-3.20495996 22.3328767 -3.20495996 22.3328767 -2.21899414 17.9440918 C-1.11328125 15.81640625 -1.11328125 15.81640625 1.1875 12.5859375 C1.2666995 8.54676307 0.51249329 7.02911016 -1.875 3.7734375 C-8.544511 -1.19321963 -13.27225049 -0.22456808 -18.8125 5.5859375 Z " fill="#272727" transform="translate(67.8125,18.4140625)"/>
<path d="M0 0 C0.67156128 -0.00517639 1.34312256 -0.01035278 2.03503418 -0.01568604 C29.73829771 -0.18367157 29.73829771 -0.18367157 37.875 6.25 C39.875 10.25 39.875 10.25 39.875 21.25 C13.145 21.25 -13.585 21.25 -41.125 21.25 C-41.125 8.58333333 -41.125 8.58333333 -37.125 4.25 C-27.30319941 -1.93326992 -11.25535769 0.03951884 0 0 Z " fill="#555251" transform="translate(76.125,110.75)"/>
<path d="M0 0 C2.92562465 2.79842358 3.92021076 4.15423405 4.3125 8.3125 C3.94599135 12.63730212 3.1201518 14.04850506 0 17 C-0.78503906 17.17329834 -1.57007813 17.34659668 -2.37890625 17.52514648 C-6.71704039 19.96615509 -7.57393537 24.26954314 -9.25 28.78515625 C-9.6305957 29.75658066 -10.01119141 30.72800507 -10.40332031 31.72886658 C-12.03238332 35.88724117 -13.61916657 40.0613487 -15.20703125 44.2355957 C-16.3719314 47.27946652 -17.56007225 50.31350107 -18.75 53.34765625 C-19.10223633 54.29866714 -19.45447266 55.24967804 -19.81738281 56.22950745 C-20.16124023 57.10388962 -20.50509766 57.97827179 -20.859375 58.87915039 C-21.15295898 59.65255264 -21.44654297 60.4259549 -21.74902344 61.22279358 C-23 63 -23 63 -25.41259766 63.76512146 C-28.85193877 64.07733708 -32.19441138 63.83925671 -35.625 63.5625 C-45.08890162 62.89227578 -54.51714878 62.90631651 -64 63 C-64 62.67 -64 62.34 -64 62 C-62.87722656 61.98582031 -61.75445312 61.97164062 -60.59765625 61.95703125 C-51.99678192 61.73410612 -44.97367403 61.54662876 -38 56 C-37.22914062 55.42765625 -36.45828125 54.8553125 -35.6640625 54.265625 C-24.67939131 45.32541943 -16.81832736 32.2953855 -10.20483398 19.90966797 C-8.30392714 16.51937609 -6.47670828 14.48338062 -3.265625 12.41015625 C-0.3885465 10.58111485 -0.3885465 10.58111485 0.68359375 7.32421875 C0.60238281 6.45410156 0.52117187 5.58398438 0.4375 4.6875 C0.37433594 3.80449219 0.31117187 2.92148437 0.24609375 2.01171875 C0.16488281 1.34785156 0.08367187 0.68398438 0 0 Z " fill="#444141" transform="translate(127,45)"/>
<path d="M0 0 C0.67156128 -0.00517639 1.34312256 -0.01035278 2.03503418 -0.01568604 C29.08770704 -0.17972656 29.08770704 -0.17972656 37.875 6.25 C37.875 6.91 37.875 7.57 37.875 8.25 C36.5859375 8.105625 35.296875 7.96125 33.96875 7.8125 C9.61727063 5.28586261 -14.80808349 5.36494211 -39.125 8.25 C-37.33789062 4.39746094 -37.33789062 4.39746094 -35.421875 3.0703125 C-24.44624407 -0.84955569 -11.51730002 0.04043855 0 0 Z " fill="#747171" transform="translate(76.125,110.75)"/>
<path d="M0 0 C3.28602882 2.71097377 4.85071248 4.17891863 5.625 8.4375 C4.80650779 13.10290557 3.36107196 14.71895356 0 18 C-0.66 18 -1.32 18 -2 18 C-2 25.92 -2 33.84 -2 42 C-2.33 42 -2.66 42 -3 42 C-6.57180773 16.86978135 -6.57180773 16.86978135 -3.87890625 11.953125 C-2.98738246 10.81157046 -2.06670147 9.69195294 -1.11328125 8.6015625 C0.77610357 5.88350013 0.32261085 3.16158635 0 0 Z " fill="#434040" transform="translate(98,21)"/>
<path d="M0 0 C2.29851631 1.79883885 2.99544549 2.98536049 3.875 5.8125 C4.02770065 9.70636652 2.96040755 11.68238723 1 15 C-0.45610147 17.91220294 0.76012807 19.77423109 1.73828125 22.71679688 C2.24489509 24.19377107 2.75270224 25.6703365 3.26171875 27.14648438 C5.10220846 32.69337463 5.10220846 32.69337463 4 36 C2.67899505 33.1079732 1.36973913 30.21077206 0.0625 27.3125 C-0.31068359 26.49587891 -0.68386719 25.67925781 -1.06835938 24.83789062 C-5.61730579 14.71546031 -5.61730579 14.71546031 -4.2578125 10.9375 C-3.69707031 9.9784375 -3.69707031 9.9784375 -3.125 9 C-1.47216743 5.99070484 -0.43134263 3.45074104 0 0 Z " fill="#434040" transform="translate(65,22)"/>
<path d="M0 0 C3 1 3 1 5 4 C5.0858547 6.70442295 5.0930658 9.3062621 5 12 C4.98352501 16.29558621 4.98352501 16.29558621 7.5 19.25 C8.325 20.1575 9.15 21.065 10 22 C5.81297634 20.38960628 2.1579044 17.96321005 0 14 C-0.51382627 9.29167357 -0.34891161 4.71676806 0 0 Z " fill="#444141" transform="translate(34,45)"/>
<path d="M0 0 C2.83738165 1.97383071 3.09074796 3.36904171 3.9375 6.8125 C4.26200821 10.26755805 3.95163268 11.09327983 2.25 14.375 C0 17 0 17 -3 19 C-3.38411275 21.609621 -3.60293197 24.0058074 -3.6875 26.625 C-3.72166016 27.33140625 -3.75582031 28.0378125 -3.79101562 28.765625 C-3.87351308 30.50985688 -3.93843335 32.25490395 -4 34 C-4.33 34 -4.66 34 -5 34 C-5.13517903 31.24835568 -5.23415251 28.50335479 -5.3125 25.75 C-5.35439453 24.97269531 -5.39628906 24.19539063 -5.43945312 23.39453125 C-5.48722822 21.15865684 -5.46686541 19.18874538 -5 17 C-2.54296875 14.578125 -2.54296875 14.578125 0 13 C1.98384711 9.03230578 1.32630565 4.14470514 0 0 Z " fill="#202020" transform="translate(101,22)"/>
<path d="M0 0 C0.721875 0.12375 1.44375 0.2475 2.1875 0.375 C1.78917969 0.81070312 1.39085937 1.24640625 0.98046875 1.6953125 C-2.30186831 5.38494686 -4.80649746 8.80577198 -6.8125 13.375 C-7.1425 13.375 -7.4725 13.375 -7.8125 13.375 C-8.23570237 9.14297628 -8.21611534 6.33024165 -5.625 2.9375 C-2.8125 0.375 -2.8125 0.375 0 0 Z " fill="#706D6D" transform="translate(55.8125,19.625)"/>
<path d="M0 0 C0.556875 0.268125 1.11375 0.53625 1.6875 0.8125 C0.5428125 1.864375 0.5428125 1.864375 -0.625 2.9375 C-3.27840478 5.77602604 -4.75250743 8.28199051 -6.3125 11.8125 C-6.6425 11.8125 -6.9725 11.8125 -7.3125 11.8125 C-7.74747796 7.37572479 -7.78752251 5.44586334 -5.0625 1.8125 C-2.3125 -0.1875 -2.3125 -0.1875 0 0 Z " fill="#716E6E" transform="translate(27.3125,44.1875)"/>
<path d="M0 0 C0.556875 0.268125 1.11375 0.53625 1.6875 0.8125 C0.5428125 1.864375 0.5428125 1.864375 -0.625 2.9375 C-3.27840478 5.77602604 -4.75250743 8.28199051 -6.3125 11.8125 C-6.6425 11.8125 -6.9725 11.8125 -7.3125 11.8125 C-7.74747796 7.37572479 -7.78752251 5.44586334 -5.0625 1.8125 C-2.3125 -0.1875 -2.3125 -0.1875 0 0 Z " fill="#716E6E" transform="translate(119.3125,44.1875)"/>
<path d="M0 0 C0.556875 0.268125 1.11375 0.53625 1.6875 0.8125 C0.5428125 1.616875 0.5428125 1.616875 -0.625 2.4375 C-3.54114474 5.01455814 -4.7830622 7.27064404 -6.3125 10.8125 C-6.6425 10.8125 -6.9725 10.8125 -7.3125 10.8125 C-7.79127076 6.69507146 -7.63415374 5.23243683 -5.0625 1.875 C-2.3125 -0.1875 -2.3125 -0.1875 0 0 Z " fill="#716E6E" transform="translate(90.3125,20.1875)"/>
</svg>
