<?xml version="1.0" encoding="UTF-8"?>
<svg version="1.1" xmlns="http://www.w3.org/2000/svg" width="150" height="150">
<path d="M0 0 C6.27 0 12.54 0 19 0 C19 3.3 19 6.6 19 10 C22.3 10 25.6 10 29 10 C29.02683697 13.14588944 29.04675902 16.29155271 29.0625 19.4375 C29.07087891 20.33533203 29.07925781 21.23316406 29.08789062 22.15820312 C29.09111328 23.01220703 29.09433594 23.86621094 29.09765625 24.74609375 C29.10289307 25.53685303 29.10812988 26.3276123 29.11352539 27.14233398 C29 29 29 29 28 30 C25.32941149 30.14115161 22.67567762 30.04247107 20 30 C20.495 31.98 20.495 31.98 21 34 C21.55945313 33.7834375 22.11890625 33.566875 22.6953125 33.34375 C31.90921342 30.14406737 42.65883645 29.14387313 51.90625 32.8359375 C60.38445158 37.5495645 64.87651918 43.80616703 67.57421875 52.9453125 C69.26288276 61.09427825 68.21914725 68.83541033 64 76 C61.22436497 79.56140544 58.14625611 82.76607731 55 86 C53.15150788 87.96541877 51.32463823 89.94995944 49.5 91.9375 C48.6646875 92.83339844 47.829375 93.72929688 46.96875 94.65234375 C44.82282061 96.91939505 44.82282061 96.91939505 44 100 C44.7425 100.20625 45.485 100.4125 46.25 100.625 C49.87455474 102.43727737 51.06680304 104.47881982 53 108 C54 113 54 113 54 125 C24.63 125 -4.74 125 -35 125 C-35 107.13868613 -35 107.13868613 -30.39453125 102.3203125 C-28.9296875 101.21354167 -27.46484375 100.10677083 -26 99 C-28.71154416 94.65009895 -31.54132007 91.3383132 -35.3125 87.8125 C-43.25845328 80.16182653 -49.09416834 72.23329052 -49.3125 60.9375 C-49.34750461 52.86504885 -47.48177038 46.98855954 -43.25 40.1875 C-35.5013444 32.65408483 -27.24573054 30.60645267 -16.63671875 30.73046875 C-11.5143444 31.11010767 -6.84441056 32.33905924 -2 34 C-2 32.68 -2 31.36 -2 30 C-4.64 30 -7.28 30 -10 30 C-10 23.4 -10 16.8 -10 10 C-6.7 10 -3.4 10 0 10 C0 6.7 0 3.4 0 0 Z M-20 59 C-21.25695267 60.77713532 -21.25695267 60.77713532 -21 63 C-18.55425759 67.58576701 -15.23763118 70.91968256 -11.48828125 74.484375 C-10 76 -10 76 -9 78 C-7.68 78 -6.36 78 -5 78 C-5 71.73 -5 65.46 -5 59 C-13.34055379 55.29260144 -13.34055379 55.29260144 -20 59 Z M24 59 C22.80658248 59.97332261 22.80658248 59.97332261 22.88647461 61.76586914 C22.89171143 62.51473389 22.89694824 63.26359863 22.90234375 64.03515625 C22.90556641 64.84404297 22.90878906 65.65292969 22.91210938 66.48632812 C22.92048828 67.33646484 22.92886719 68.18660156 22.9375 69.0625 C22.94201172 69.91650391 22.94652344 70.77050781 22.95117188 71.65039062 C22.96299627 73.76695663 22.98093231 75.88348685 23 78 C27.95192607 77.59030827 29.97314016 75.47562144 33.25 71.875 C34.12140625 70.94429687 34.9928125 70.01359375 35.890625 69.0546875 C38.28156108 65.59225784 38.73053838 63.15592735 39 59 C32.97488805 55.09181928 30.42956149 56.02335116 24 59 Z " fill="#F5F5F5" transform="translate(66,11)"/>
<path d="M0 0 C6.27 0 12.54 0 19 0 C19 3.3 19 6.6 19 10 C22.3 10 25.6 10 29 10 C29.02683697 13.14588944 29.04675902 16.29155271 29.0625 19.4375 C29.07087891 20.33533203 29.07925781 21.23316406 29.08789062 22.15820312 C29.09111328 23.01220703 29.09433594 23.86621094 29.09765625 24.74609375 C29.10289307 25.53685303 29.10812988 26.3276123 29.11352539 27.14233398 C29 29 29 29 28 30 C25.32941149 30.14115161 22.67567762 30.04247107 20 30 C20.495 31.98 20.495 31.98 21 34 C21.55945313 33.7834375 22.11890625 33.566875 22.6953125 33.34375 C31.90921342 30.14406737 42.65883645 29.14387313 51.90625 32.8359375 C60.38445158 37.5495645 64.87651918 43.80616703 67.57421875 52.9453125 C69.26288276 61.09427825 68.21914725 68.83541033 64 76 C61.22436497 79.56140544 58.14625611 82.76607731 55 86 C53.15150788 87.96541877 51.32463823 89.94995944 49.5 91.9375 C48.6646875 92.83339844 47.829375 93.72929688 46.96875 94.65234375 C44.82282061 96.91939505 44.82282061 96.91939505 44 100 C44.7425 100.20625 45.485 100.4125 46.25 100.625 C49.87455474 102.43727737 51.06680304 104.47881982 53 108 C54 113 54 113 54 125 C24.63 125 -4.74 125 -35 125 C-35 107.13868613 -35 107.13868613 -30.39453125 102.3203125 C-28.9296875 101.21354167 -27.46484375 100.10677083 -26 99 C-28.71154416 94.65009895 -31.54132007 91.3383132 -35.3125 87.8125 C-43.25845328 80.16182653 -49.09416834 72.23329052 -49.3125 60.9375 C-49.34750461 52.86504885 -47.48177038 46.98855954 -43.25 40.1875 C-35.5013444 32.65408483 -27.24573054 30.60645267 -16.63671875 30.73046875 C-11.5143444 31.11010767 -6.84441056 32.33905924 -2 34 C-2 32.68 -2 31.36 -2 30 C-4.64 30 -7.28 30 -10 30 C-10 23.4 -10 16.8 -10 10 C-6.7 10 -3.4 10 0 10 C0 6.7 0 3.4 0 0 Z M3 4 C3 7.3 3 10.6 3 14 C-0.3 14 -3.6 14 -7 14 C-7 17.96 -7 21.92 -7 26 C-3.7 26 -0.4 26 3 26 C2.47916667 28.21354167 1.95833333 30.42708333 1.4375 32.640625 C0.87845172 35.25556002 0.87845172 35.25556002 1 39 C0.22398438 38.71125 -0.55203125 38.4225 -1.3515625 38.125 C-11.15767072 34.75488166 -22.40137118 32.42528331 -32.26171875 36.96484375 C-39.20797878 41.10138062 -43.3291252 46.21361478 -45.58203125 54.015625 C-47.13303991 61.37929228 -45.65360739 67.52986509 -42 74 C-39.23244115 77.56795266 -36.14371758 80.76367678 -33 84 C-31.17276972 85.96586588 -29.36748428 87.95122477 -27.5625 89.9375 C-26.73878906 90.83339844 -25.91507813 91.72929688 -25.06640625 92.65234375 C-23 95 -23 95 -21 98 C-18.38012998 98.49475164 -18.38012998 98.49475164 -15.26855469 98.4675293 C-14.06680603 98.49312424 -12.86505737 98.51871918 -11.62689209 98.54508972 C-9.66915863 98.55950859 -9.66915863 98.55950859 -7.671875 98.57421875 C-6.32147044 98.58893827 -4.97106761 98.60381783 -3.6206665 98.61885071 C-0.78596211 98.64586853 2.04847952 98.65939551 4.88330078 98.66577148 C8.50694082 98.67661919 12.12778056 98.73823381 15.75059891 98.8124876 C18.54233017 98.86100268 21.33339446 98.87330298 24.12551117 98.87583351 C26.10767103 98.88654074 28.08951561 98.9346186 30.07110596 98.98332214 C36.55244966 99.11336032 36.55244966 99.11336032 42.0925293 96.25878906 C43.60484526 94.23875219 44.78691471 92.20724349 46 90 C47.79488746 88.1698198 49.62652713 86.37465139 51.5 84.625 C58.62170072 77.78241582 64.1085979 70.39839806 64.3125 60.375 C64.24791383 52.48741395 62.70993502 48.1378195 57.625 42.25 C49.12992367 34.968506 41.87563444 34.34398564 31.14111328 34.79443359 C26.35691509 35.25376026 22.34564893 37.04139766 18 39 C17.01 32.565 17.01 32.565 16 26 C18.97 26 21.94 26 25 26 C25 22.04 25 18.08 25 14 C21.7 14 18.4 14 15 14 C15 10.7 15 7.4 15 4 C11.04 4 7.08 4 3 4 Z " fill="#4C4C4C" transform="translate(66,11)"/>
<path d="M0 0 C0.87167313 -0.0033284 1.74334625 -0.0066568 2.64143372 -0.01008606 C4.47945634 -0.01512725 6.31748804 -0.01749526 8.15551758 -0.01733398 C10.93131057 -0.01951108 13.7066995 -0.03767101 16.48242188 -0.05664062 C42.10503935 -0.13821795 42.10503935 -0.13821795 49.76953125 5.16796875 C54.3998321 10.10695632 52.76953125 13.64890447 52.76953125 21.16796875 C26.03953125 21.16796875 -0.69046875 21.16796875 -28.23046875 21.16796875 C-28.23046875 9.16796875 -28.23046875 9.16796875 -26.73046875 6.10546875 C-19.00800629 0.12056034 -9.40049917 0.01271014 0 0 Z " fill="#F7F7F7" transform="translate(63.23046875,110.83203125)"/>
<path d="M0 0 C0.80953125 0.02191406 1.6190625 0.04382812 2.453125 0.06640625 C4.95268234 0.4702463 6.61443366 1.08223674 8.75 2.4375 C11.25304378 6.19206567 11.20280074 7.98495934 10.75 12.4375 C8.39712449 16.95502097 5.09171736 20.25582607 1.43359375 23.7265625 C-0.32772062 25.38769445 -0.32772062 25.38769445 -1.53100586 27.52880859 C-3.25 29.4375 -3.25 29.4375 -5.73046875 29.828125 C-7.07044922 29.75851563 -7.07044922 29.75851563 -8.4375 29.6875 C-9.33855469 29.65140625 -10.23960938 29.6153125 -11.16796875 29.578125 C-11.85503906 29.53171875 -12.54210937 29.4853125 -13.25 29.4375 C-13.48282073 25.54267784 -13.62456639 21.64964146 -13.75 17.75 C-13.81703125 16.64720703 -13.8840625 15.54441406 -13.953125 14.40820312 C-14.14514865 6.46322464 -14.14514865 6.46322464 -11.61816406 3.56762695 C-7.9464994 1.13499765 -4.45714665 -0.22285733 0 0 Z M-8.25 6.4375 C-9.44341752 7.41082261 -9.44341752 7.41082261 -9.36352539 9.20336914 C-9.35828857 9.95223389 -9.35305176 10.70109863 -9.34765625 11.47265625 C-9.34443359 12.28154297 -9.34121094 13.09042969 -9.33789062 13.92382812 C-9.32951172 14.77396484 -9.32113281 15.62410156 -9.3125 16.5 C-9.30798828 17.35400391 -9.30347656 18.20800781 -9.29882812 19.08789062 C-9.28700373 21.20445663 -9.26906769 23.32098685 -9.25 25.4375 C-4.29807393 25.02780827 -2.27685984 22.91312144 1 19.3125 C1.87140625 18.38179687 2.7428125 17.45109375 3.640625 16.4921875 C6.03156108 13.02975784 6.48053838 10.59342735 6.75 6.4375 C0.72488805 2.52931928 -1.82043851 3.46085116 -8.25 6.4375 Z " fill="#4D4D4D" transform="translate(98.25,63.5625)"/>
<path d="M0 0 C2.79755078 1.21136665 4.83393027 2.83393027 7 5 C7.08726223 6.78071246 7.10699041 8.5648314 7.09765625 10.34765625 C7.09443359 11.42724609 7.09121094 12.50683594 7.08789062 13.61914062 C7.07951172 14.75544922 7.07113281 15.89175781 7.0625 17.0625 C7.05798828 18.20267578 7.05347656 19.34285156 7.04882812 20.51757812 C7.03699747 23.34510351 7.0205141 26.1725264 7 29 C-1.09929324 29.54711752 -1.09929324 29.54711752 -4.41796875 27.53125 C-5.00191406 26.8609375 -5.58585937 26.190625 -6.1875 25.5 C-6.83074219 24.76652344 -7.47398438 24.03304687 -8.13671875 23.27734375 C-9.05904297 22.15005859 -9.05904297 22.15005859 -10 21 C-10.60457031 20.34128906 -11.20914063 19.68257812 -11.83203125 19.00390625 C-14.8023463 15.5466543 -16.40826657 12.86112503 -16.6875 8.25 C-16.42830936 5.12351291 -16.05314709 4.07513899 -14.1875 1.4375 C-9.45114017 -0.69850541 -5.11018569 -0.77064294 0 0 Z M-12 6 C-13.25695267 7.77713532 -13.25695267 7.77713532 -13 10 C-10.55425759 14.58576701 -7.23763118 17.91968256 -3.48828125 21.484375 C-2 23 -2 23 -1 25 C0.32 25 1.64 25 3 25 C3 18.73 3 12.46 3 6 C-5.34055379 2.29260144 -5.34055379 2.29260144 -12 6 Z " fill="#494949" transform="translate(58,64)"/>
<path d="M0 0 C4.10388383 3.69349545 5.73908954 6.72595938 6.37109375 12.234375 C6.60874695 24.81601504 2.66299026 30.63416048 -5.71875 39.64453125 C-8.29322812 42.30276808 -10.92215149 44.89654995 -13.58984375 47.4609375 C-15.21529837 49.08938885 -15.21529837 49.08938885 -16.4375 51.9375 C-18 54 -18 54 -19.953125 54.3046875 C-21.97129479 54.31174404 -23.98856361 54.16487184 -26 54 C-24.46828314 50.31862494 -22.26126929 48.09655872 -19.38671875 45.3671875 C-18.46826172 44.47773437 -17.54980469 43.58828125 -16.60351562 42.671875 C-14.67963889 40.82143361 -12.74544842 38.98340406 -10.80664062 37.1484375 C-4.38801526 30.90474323 0.931423 24.93321772 2.55859375 15.8984375 C2.51863281 15.06570312 2.47867188 14.23296875 2.4375 13.375 C2.39496094 12.46878906 2.35242188 11.56257813 2.30859375 10.62890625 C1.87561992 6.94040768 1.07315546 3.55482745 0 0 Z " fill="#CFCFCF" transform="translate(124,55)"/>
</svg>
