<?xml version="1.0" encoding="UTF-8"?>
<svg version="1.1" xmlns="http://www.w3.org/2000/svg" width="150" height="150">
<path d="M0 0 C4.57035944 3.76631473 7.26588921 8.11088523 8.0234375 14.00390625 C8.11995782 20.67346065 7.03673135 24.63413362 3.6875 30.390625 C3.6875 31.050625 3.6875 31.710625 3.6875 32.390625 C5.47715547 33.75339586 5.47715547 33.75339586 7.6875 35.015625 C8.80125 35.68464844 8.80125 35.68464844 9.9375 36.3671875 C10.515 36.70492187 11.0925 37.04265625 11.6875 37.390625 C11.20605059 42.20511908 10.8866413 44.99234241 8.6875 49.390625 C5.7175 49.390625 2.7475 49.390625 -0.3125 49.390625 C3.05856323 60.01390979 8.98643721 66.64837442 17.93359375 73.07421875 C23.37096202 77.15527244 25.03279358 82.02000529 26.6875 88.390625 C26.6875 91.690625 26.6875 94.990625 26.6875 98.390625 C0.2875 98.390625 -26.1125 98.390625 -53.3125 98.390625 C-53.3125 87.3154235 -52.66126244 81.12482344 -45.2734375 73.22265625 C-43.353884 71.42928854 -41.38953286 69.91125084 -39.25 68.390625 C-32.38178886 63.46574492 -28.86258214 57.32421388 -26.3125 49.390625 C-29.2825 49.390625 -32.2525 49.390625 -35.3125 49.390625 C-39.32064664 40.87331339 -39.32064664 40.87331339 -38.3125 37.390625 C-35.80764124 35.40965827 -33.13622262 33.87181879 -30.3125 32.390625 C-30.60125 31.66875 -30.89 30.946875 -31.1875 30.203125 C-31.744375 28.8109375 -31.744375 28.8109375 -32.3125 27.390625 C-32.65796875 26.6171875 -33.0034375 25.84375 -33.359375 25.046875 C-35.43239189 19.26961481 -35.26725165 12.69602568 -32.75 7.078125 C-29.66388409 1.7860882 -25.58653948 -1.62252768 -20 -4.046875 C-12.4311459 -5.20144597 -6.33891255 -4.44746284 0 0 Z " fill="#F6F6F6" transform="translate(88.3125,37.609375)"/>
<path d="M0 0 C3.41539552 2.8594009 6.75694186 5.73998144 9.9375 8.859375 C17.61750581 16.32679768 25.25576616 22.57683237 36 25 C40.82590475 26.60863492 42.03917171 30.12638484 44.25 34.4375 C45 37 45 37 45 44 C21.24 44 -2.52 44 -27 44 C-27 36.58129422 -26.38318544 32.84716937 -22 27 C-19.33841552 24.78316215 -16.63336745 22.76116678 -13.81420898 20.75732422 C-8.55957031 16.92689609 -5.69097216 12.84018958 -3 7 C-2.49726562 5.91912109 -2.49726562 5.91912109 -1.984375 4.81640625 C-1.28153158 3.22861906 -0.6327401 1.61700247 0 0 Z " fill="#F7F7F7" transform="translate(66,88)"/>
<path d="M0 0 C4.57035944 3.76631473 7.26588921 8.11088523 8.0234375 14.00390625 C8.11995782 20.67346065 7.03673135 24.63413362 3.6875 30.390625 C3.6875 31.050625 3.6875 31.710625 3.6875 32.390625 C5.47715547 33.75339586 5.47715547 33.75339586 7.6875 35.015625 C8.80125 35.68464844 8.80125 35.68464844 9.9375 36.3671875 C10.515 36.70492187 11.0925 37.04265625 11.6875 37.390625 C11.20605059 42.20511908 10.8866413 44.99234241 8.6875 49.390625 C5.7175 49.390625 2.7475 49.390625 -0.3125 49.390625 C3.05856323 60.01390979 8.98643721 66.64837442 17.93359375 73.07421875 C23.37096202 77.15527244 25.03279358 82.02000529 26.6875 88.390625 C26.6875 91.690625 26.6875 94.990625 26.6875 98.390625 C0.2875 98.390625 -26.1125 98.390625 -53.3125 98.390625 C-53.3125 87.3154235 -52.66126244 81.12482344 -45.2734375 73.22265625 C-43.353884 71.42928854 -41.38953286 69.91125084 -39.25 68.390625 C-32.38178886 63.46574492 -28.86258214 57.32421388 -26.3125 49.390625 C-29.2825 49.390625 -32.2525 49.390625 -35.3125 49.390625 C-39.32064664 40.87331339 -39.32064664 40.87331339 -38.3125 37.390625 C-35.80764124 35.40965827 -33.13622262 33.87181879 -30.3125 32.390625 C-30.60125 31.66875 -30.89 30.946875 -31.1875 30.203125 C-31.744375 28.8109375 -31.744375 28.8109375 -32.3125 27.390625 C-32.65796875 26.6171875 -33.0034375 25.84375 -33.359375 25.046875 C-35.43239189 19.26961481 -35.26725165 12.69602568 -32.75 7.078125 C-29.66388409 1.7860882 -25.58653948 -1.62252768 -20 -4.046875 C-12.4311459 -5.20144597 -6.33891255 -4.44746284 0 0 Z M-29.03515625 7.69921875 C-31.41118334 12.70558775 -31.04356529 17.98738789 -30.3125 23.390625 C-28.65129922 27.0637245 -26.15174746 29.55137754 -23.3125 32.390625 C-26.9425 34.700625 -30.5725 37.010625 -34.3125 39.390625 C-33.8672002 44.02082487 -33.8672002 44.02082487 -32.3125 45.390625 C-30.62641034 45.46268011 -28.93749341 45.47448568 -27.25 45.453125 C-26.33089844 45.44410156 -25.41179688 45.43507812 -24.46484375 45.42578125 C-23.75457031 45.41417969 -23.04429688 45.40257812 -22.3125 45.390625 C-24.85798029 58.38597173 -28.82972299 65.9188252 -39.61352539 73.63452148 C-44.6345898 77.34624959 -47.77318503 81.29947065 -49.3125 87.390625 C-49.3125 89.700625 -49.3125 92.010625 -49.3125 94.390625 C-25.5525 94.390625 -1.7925 94.390625 22.6875 94.390625 C22.6875 86.53708685 21.54489687 82.75226838 16.5625 76.890625 C14.85692738 75.40751837 13.11918284 73.95829132 11.3203125 72.58984375 C5.79672032 68.36929483 1.78555685 64.65467854 -1.3125 58.390625 C-1.93125 57.153125 -1.93125 57.153125 -2.5625 55.890625 C-3.60683426 52.40951081 -3.94483056 49.00604115 -4.3125 45.390625 C-3.61382812 45.42542969 -2.91515625 45.46023437 -2.1953125 45.49609375 C-1.28523438 45.52316406 -0.37515625 45.55023438 0.5625 45.578125 C1.46742187 45.61292969 2.37234375 45.64773437 3.3046875 45.68359375 C4.09101562 45.58691406 4.87734375 45.49023438 5.6875 45.390625 C7.9648501 42.57552507 7.9648501 42.57552507 7.6875 39.390625 C5.23269941 37.46241314 5.23269941 37.46241314 2.1875 35.703125 C1.1665625 35.08050781 0.145625 34.45789063 -0.90625 33.81640625 C-1.7003125 33.34589844 -2.494375 32.87539062 -3.3125 32.390625 C-2.89097656 31.84792969 -2.46945313 31.30523437 -2.03515625 30.74609375 C-1.48730469 30.03066406 -0.93945312 29.31523438 -0.375 28.578125 C0.44291016 27.51658203 0.44291016 27.51658203 1.27734375 26.43359375 C4.43438084 21.85982533 4.3768526 16.73905033 3.6875 11.390625 C1.763318 6.32562575 -1.38155631 2.39234842 -6.30078125 0.0234375 C-15.3743488 -2.8307721 -23.37478282 0.11354823 -29.03515625 7.69921875 Z " fill="#4D4D4D" transform="translate(88.3125,37.609375)"/>
<path d="M0 0 C5.94 0 11.88 0 18 0 C18.33 2.64 18.66 5.28 19 8 C22.4368963 17.33249533 27.81094366 23.54062911 36 29 C33.25509273 30.09142742 32.1091624 30.03727116 29.265625 29.06640625 C23.19759468 26.04025123 18.46529533 23.02104054 13.875 18.01953125 C11.94139882 15.93688164 9.90543017 14.10034171 7.75 12.25 C7.09515625 11.68023437 6.4403125 11.11046875 5.765625 10.5234375 C4.34902568 9.30115048 2.92560846 8.08676719 1.5 6.875 C0 5 0 5 0 0 Z " fill="#D2D2D2" transform="translate(66,83)"/>
<path d="M0 0 C3.35987273 3.13588121 5.65733198 5.65710704 6.3359375 10.296875 C6.43158684 16.30365386 5.6675602 21.09860011 2 26 C-0.25493247 28.12857849 -1.47279664 28.94009053 -4.578125 29.29296875 C-5.45984375 29.25816406 -6.3415625 29.22335938 -7.25 29.1875 C-8.14203125 29.16042969 -9.0340625 29.13335937 -9.953125 29.10546875 C-10.62859375 29.07066406 -11.3040625 29.03585938 -12 29 C-9.6896955 27.23857994 -7.39715116 25.61860584 -4.9375 24.0625 C-1.15531105 21.40692052 0.54654853 19.36035442 2 15 C2.27690465 9.46190705 1.74960184 5.24880553 0 0 Z " fill="#D2D2D2" transform="translate(86,41)"/>
<path d="M0 0 C3.59391114 1.33488128 6.75490696 2.96022723 10 5 C9.125 9.875 9.125 9.875 8 11 C6.31391034 11.07205511 4.62499341 11.08386068 2.9375 11.0625 C2.01839844 11.05347656 1.09929687 11.04445313 0.15234375 11.03515625 C-0.55792969 11.02355469 -1.26820312 11.01195313 -2 11 C-1.34 10.01 -0.68 9.02 0 8 C0.24055468 5.94290404 0.24055468 5.94290404 0.125 3.8125 C0.08375 2.554375 0.0425 1.29625 0 0 Z " fill="#CFCFCF" transform="translate(86,72)"/>
</svg>
